<svg width="99" height="120" viewBox="0 0 99 120" fill="none" xmlns="http://www.w3.org/2000/svg">
<path d="M0 46.001C0.740299 53.7697 0.832836 57.4712 0.832836 64.222V101.777C0.832836 108.53 0.740299 112.229 0 120H43.4749L46.1563 115.005C35.7965 118.057 29.5062 118.519 20.3494 118.519H9.98962V81.5199H15.9098C20.8121 81.5199 25.8069 81.5199 34.4085 82.4453V79.1161C25.8069 80.0393 20.8121 80.0393 15.9098 80.0393H9.98962V47.4816H18.4061C22.5703 47.4816 31.6345 48.0346 39.4958 51.1809L43.66 46.001H0Z" fill="#816A5A"/>
<path d="M22.4561 12.9585C26.4617 11.2972 30.3174 10.4644 34.0189 10.4644C37.0968 10.4644 40.2717 11.6056 43.5458 13.8838C45.3305 15.1177 47.3354 17.5236 49.5563 21.1017C51.0369 23.565 52.9163 28.0354 55.1967 34.5152L66.4863 66.5155C69.0707 73.6718 71.7058 79.3628 74.3916 83.5865C77.0752 87.8101 79.5252 90.985 81.7417 93.1134C83.9626 95.2396 86.2738 96.7356 88.6776 97.5993C91.0858 98.4629 93.0753 98.8948 94.644 98.8948C96.2172 98.8948 97.6229 98.7714 98.8567 98.5246L98.9536 99.45C95.9924 100.437 93.0929 100.931 90.2551 100.931C87.4173 100.931 84.5795 100.204 81.7417 98.7538C78.9083 97.3018 76.26 95.2814 73.7923 92.6904C68.4868 87.3254 63.9833 79.1579 60.2818 68.1812L56.6773 57.6408H31.3309L24.9502 74.1036C24.6373 74.8439 24.4831 75.5842 24.4831 76.3245C24.4831 77.0648 24.8048 77.8536 25.4526 78.6864C26.1047 79.5148 27.1094 79.929 28.4666 79.929H29.2069V80.8544H10.6113V79.929H11.4486C12.9226 79.929 14.3679 79.484 15.7846 78.5895C17.2057 77.6971 18.3801 76.3553 19.3098 74.5619L42.2503 19.6211C38.9189 14.8687 34.7856 12.4914 29.8503 12.4914C27.6294 12.4914 25.2543 12.9563 22.7293 13.8838L22.4561 12.9585ZM32.3532 54.8646H55.7519L48.4459 33.3079C47.0226 29.1789 45.727 25.9401 44.5593 23.5958L32.3532 54.8646Z" fill="#816A5A"/>
<mask id="mask0_17_58403" style="mask-type:luminance" maskUnits="userSpaceOnUse" x="30" y="0" width="10" height="9">
<path d="M30.7178 0H39.1783V8.46056H30.7178V0Z" fill="white"/>
</mask>
<g mask="url(#mask0_17_58403)">
<path d="M39.1783 4.23028C39.1783 4.50789 39.1519 4.7833 39.0968 5.0565C39.0439 5.32751 38.9624 5.5919 38.8567 5.84968C38.7509 6.10526 38.6209 6.34982 38.4667 6.58117C38.3124 6.81031 38.1362 7.02402 37.9401 7.22232C37.744 7.41841 37.5303 7.59247 37.2989 7.7467C37.0676 7.90093 36.823 8.03312 36.5675 8.13888C36.3119 8.24464 36.0453 8.32395 35.7743 8.37903C35.5011 8.43412 35.2257 8.46056 34.9481 8.46056C34.6704 8.46056 34.395 8.43412 34.124 8.37903C33.8508 8.32395 33.5864 8.24464 33.3286 8.13888C33.0731 8.03312 32.8285 7.90093 32.5994 7.7467C32.368 7.59247 32.1543 7.41841 31.9582 7.22232C31.7599 7.02402 31.5859 6.81031 31.4316 6.58117C31.2774 6.34982 31.1474 6.10526 31.0395 5.84968C30.9337 5.5919 30.8544 5.32751 30.7993 5.0565C30.7464 4.7833 30.7178 4.50789 30.7178 4.23028C30.7178 3.95267 30.7464 3.67726 30.7993 3.40405C30.8544 3.13305 30.9337 2.86866 31.0395 2.61087C31.1474 2.3553 31.2774 2.11073 31.4316 1.87939C31.5859 1.64805 31.7599 1.43433 31.9582 1.23824C32.1543 1.04215 32.368 0.868088 32.5994 0.713859C32.8285 0.557427 33.0731 0.427434 33.3286 0.321677C33.5864 0.21592 33.8508 0.134399 34.124 0.081521C34.395 0.0264394 34.6704 0 34.9481 0C35.2257 0 35.5011 0.0264394 35.7743 0.081521C36.0453 0.134399 36.3119 0.21592 36.5675 0.321677C36.823 0.427434 37.0676 0.557427 37.2989 0.713859C37.5303 0.868088 37.744 1.04215 37.9401 1.23824C38.1362 1.43433 38.3124 1.64805 38.4667 1.87939C38.6209 2.11073 38.7509 2.3553 38.8567 2.61087C38.9624 2.86866 39.0439 3.13305 39.0968 3.40405C39.1519 3.67726 39.1783 3.95267 39.1783 4.23028Z" fill="#816A5A"/>
</g>
</svg>
